<svg xmlns="http://www.w3.org/2000/svg" viewBox="-83.0334 -59.4334 170.9 119.7">
	<path d="M -74.4 8.9334 h 153.6 c 4.7104 0 8.5334 -3.823 8.5334 -8.5334 s -3.823 -8.5334 -8.5334 -8.5334 h -153.6 c -4.7104 0 -8.5334 3.823 -8.5334 8.5334 s 3.823 8.5334 8.5334 8.5334 z M -74.4 -42.2666 h 153.6 c 4.7104 0 8.5334 -3.823 8.5334 -8.5334 s -3.823 -8.5334 -8.5334 -8.5334 h -153.6 c -4.7104 0 -8.5334 3.823 -8.5334 8.5334 s 3.823 8.5334 8.5334 8.5334 z M -74.4 60.1334 h 153.6 c 4.7104 0 8.5334 -3.823 8.5334 -8.5334 s -3.823 -8.5334 -8.5334 -8.5334 h -153.6 c -4.7104 0 -8.5334 3.823 -8.5334 8.5334 s 3.823 8.5334 8.5334 8.5334 z" fill="#000000"/>
</svg>