<svg width="0" height="0" class="hidden">
  <symbol xmlns="http://www.w3.org/2000/svg" viewBox="54.286 0 493.7 950.9" id="facebook">
    <path d="M548 6.857v150.857h-89.714c-70.286 0-83.429 33.714-83.429 82.286v108h167.429l-22.286 169.143h-145.143v433.714h-174.857v-433.714h-145.714v-169.143h145.714v-124.571c0-144.571 88.571-223.429 217.714-223.429 61.714 0 114.857 4.571 130.286 6.857z"></path>
  </symbol>
  <symbol xmlns="http://www.w3.org/2000/svg" viewBox="-0.0358102 73.1072 877.8 877.8" id="instagram">
    <path d="M585.143 512c0-80.571-65.714-146.286-146.286-146.286s-146.286 65.714-146.286 146.286 65.714 146.286 146.286 146.286 146.286-65.714 146.286-146.286zM664 512c0 124.571-100.571 225.143-225.143 225.143s-225.143-100.571-225.143-225.143 100.571-225.143 225.143-225.143 225.143 100.571 225.143 225.143zM725.714 277.714c0 29.143-23.429 52.571-52.571 52.571s-52.571-23.429-52.571-52.571 23.429-52.571 52.571-52.571 52.571 23.429 52.571 52.571zM438.857 152c-64 0-201.143-5.143-258.857 17.714-20 8-34.857 17.714-50.286 33.143s-25.143 30.286-33.143 50.286c-22.857 57.714-17.714 194.857-17.714 258.857s-5.143 201.143 17.714 258.857c8 20 17.714 34.857 33.143 50.286s30.286 25.143 50.286 33.143c57.714 22.857 194.857 17.714 258.857 17.714s201.143 5.143 258.857-17.714c20-8 34.857-17.714 50.286-33.143s25.143-30.286 33.143-50.286c22.857-57.714 17.714-194.857 17.714-258.857s5.143-201.143-17.714-258.857c-8-20-17.714-34.857-33.143-50.286s-30.286-25.143-50.286-33.143c-57.714-22.857-194.857-17.714-258.857-17.714zM877.714 512c0 60.571 0.571 120.571-2.857 181.143-3.429 70.286-19.429 132.571-70.857 184s-113.714 67.429-184 70.857c-60.571 3.429-120.571 2.857-181.143 2.857s-120.571 0.571-181.143-2.857c-70.286-3.429-132.571-19.429-184-70.857s-67.429-113.714-70.857-184c-3.429-60.571-2.857-120.571-2.857-181.143s-0.571-120.571 2.857-181.143c3.429-70.286 19.429-132.571 70.857-184s113.714-67.429 184-70.857c60.571-3.429 120.571-2.857 181.143-2.857s120.571-0.571 181.143 2.857c70.286 3.429 132.571 19.429 184 70.857s67.429 113.714 70.857 184c3.429 60.571 2.857 120.571 2.857 181.143z"></path>
  </symbol>
  <symbol xmlns="http://www.w3.org/2000/svg" viewBox="-83.0334 -59.4334 170.9 119.7" id="menu">
    <path d="M -74.4 8.9334 h 153.6 c 4.7104 0 8.5334 -3.823 8.5334 -8.5334 s -3.823 -8.5334 -8.5334 -8.5334 h -153.6 c -4.7104 0 -8.5334 3.823 -8.5334 8.5334 s 3.823 8.5334 8.5334 8.5334 z M -74.4 -42.2666 h 153.6 c 4.7104 0 8.5334 -3.823 8.5334 -8.5334 s -3.823 -8.5334 -8.5334 -8.5334 h -153.6 c -4.7104 0 -8.5334 3.823 -8.5334 8.5334 s 3.823 8.5334 8.5334 8.5334 z M -74.4 60.1334 h 153.6 c 4.7104 0 8.5334 -3.823 8.5334 -8.5334 s -3.823 -8.5334 -8.5334 -8.5334 h -153.6 c -4.7104 0 -8.5334 3.823 -8.5334 8.5334 s 3.823 8.5334 8.5334 8.5334 z"></path>
  </symbol>
  <symbol version="1.0"
    xmlns="http://www.w3.org/2000/svg" preserveAspectRatio="xMidYMid meet" viewBox="0 0 1280.000000 1225.000000" id="logo">
    <metadata>Created by potrace 1.15, written by Peter Selinger 2001-2017</metadata>
    <g transform="translate(0.000000,1225.000000) scale(0.100000,-0.100000)" stroke="none">
      <path d="M11390 12078 c-547 -94 -1018 -179 -1047 -190 -28 -10 -70 -34 -93
-52 -79 -62 -78 -61 -298 -626 -126 -321 -257 -659 -332 -850 -38 -96 -114
-292 -170 -435 -55 -143 -129 -330 -162 -416 l-61 -156 -286 -7 c-525 -12
-2661 -65 -3071 -76 -223 -6 -945 -24 -1605 -40 -660 -16 -1384 -34 -1610 -40
-225 -6 -847 -22 -1381 -35 -1033 -26 -1016 -25 -1099 -75 -87 -54 -162 -172
-172 -272 -3 -34 27 -317 86 -798 50 -410 149 -1231 221 -1825 203 -1679 185
-1546 216 -1615 17 -37 45 -77 78 -108 58 -55 91 -74 151 -91 23 -6 410 -40
860 -76 451 -36 1131 -90 1510 -120 380 -30 1111 -88 1625 -129 514 -41 1265
-101 1668 -133 l733 -58 647 -508 c356 -279 676 -538 712 -575 100 -103 170
-255 170 -368 0 -23 -9 -71 -20 -107 -24 -79 -78 -133 -166 -168 l-59 -23
-945 -8 c-520 -4 -2297 -12 -3950 -16 l-3005 -8 -58 -23 c-81 -32 -166 -113
-203 -193 -24 -53 -28 -75 -28 -143 1 -49 7 -97 18 -124 22 -59 79 -133 132
-171 87 -62 100 -64 441 -70 l313 -5 -54 -42 c-114 -88 -213 -238 -254 -386
-12 -45 -17 -98 -16 -192 1 -149 21 -229 89 -352 51 -90 188 -227 278 -278
369 -204 833 -59 1017 320 22 44 47 112 56 150 22 92 22 249 0 340 -38 152
-142 313 -262 406 l-57 44 1804 6 c992 3 2389 7 3103 8 l1300 1 -45 -28 c-212
-136 -342 -395 -326 -652 20 -330 262 -607 589 -674 162 -33 304 -14 467 66
91 43 116 62 191 137 70 70 94 103 133 181 64 128 81 200 81 335 0 131 -17
206 -73 320 -48 97 -116 183 -196 248 -67 53 -197 123 -251 133 -50 9 -50 19
1 38 191 74 394 242 521 434 68 101 131 242 144 322 16 92 16 272 1 360 -19
103 -67 248 -113 340 -129 255 -245 370 -850 844 -252 197 -458 363 -458 368
0 5 72 195 161 421 89 227 196 502 239 612 43 110 160 409 260 665 100 256
218 557 262 670 99 255 317 811 648 1660 38 96 150 384 250 640 194 497 220
562 500 1280 182 466 298 763 392 1005 28 72 52 131 53 133 2 2 409 72 905
157 999 170 967 162 1054 255 73 78 100 147 100 250 0 96 -25 166 -82 231 -68
78 -180 130 -276 128 -28 0 -499 -77 -1046 -171z m-2472 -3390 c-22 -57 -71
-182 -108 -278 -38 -96 -118 -303 -180 -460 -61 -157 -125 -321 -142 -365 -17
-44 -35 -86 -41 -93 -7 -9 -82 -12 -336 -10 l-326 3 0 640 0 640 400 11 c220
6 484 11 587 12 l186 2 -40 -102z m-1390 -565 l-3 -638 -612 -3 -613 -2 0 624
0 624 308 7 c169 4 415 11 547 15 132 4 270 7 308 8 l67 2 -2 -637z m-1485
-20 l-3 -618 -612 0 -613 0 -3 603 -2 602 42 1 c24 1 239 7 478 13 239 7 498
14 575 14 l140 2 -2 -617z m-1483 -23 l0 -600 -612 2 -613 3 -3 583 c-1 320
-1 583 0 583 7 3 873 26 1041 27 l187 2 0 -600z m-1485 -15 l0 -580 -612 -2
-613 -3 0 569 0 568 323 8 c177 4 435 11 572 15 138 4 268 7 290 6 l40 -1 0
-580z m-1485 -20 l0 -565 -444 0 c-284 0 -447 4 -451 10 -5 9 -135 1050 -135
1085 0 10 35 14 168 15 92 2 275 6 407 9 132 4 288 8 348 9 l107 2 0 -565z m0
-1390 l0 -575 -364 0 -365 0 -6 43 c-3 23 -32 267 -65 542 -33 275 -62 515
-65 533 l-6 32 436 0 435 0 0 -575z m1490 0 l0 -575 -615 0 -615 0 0 575 0
575 615 0 615 0 0 -575z m1480 0 l0 -575 -615 0 -615 0 0 575 0 575 615 0 615
0 0 -575z m1483 3 l-3 -573 -612 0 -613 0 -3 573 -2 572 617 0 618 0 -2 -572z
m1487 -3 l0 -575 -615 0 -615 0 0 575 0 575 615 0 615 0 0 -575z m800 523
c-11 -29 -112 -287 -224 -573 l-203 -520 -61 -3 -62 -3 0 576 0 575 285 0 285
0 -20 -52z m-6740 -1761 l0 -413 -147 12 c-82 6 -218 17 -303 24 l-156 12 -43
362 c-24 198 -45 373 -48 389 l-5 27 351 0 351 0 0 -413z m1490 -57 l0 -470
-29 0 c-15 0 -281 20 -590 45 -309 25 -573 45 -586 45 l-25 0 0 425 0 425 615
0 615 0 0 -470z m1480 -60 c0 -291 -3 -530 -7 -530 -23 -1 -1200 92 -1210 96
-10 3 -13 108 -13 484 l0 480 615 0 615 0 0 -530z m1480 -61 l0 -592 -57 6
c-32 4 -294 25 -583 47 -289 23 -540 43 -557 46 l-33 5 0 533 c0 293 3 536 7
539 3 4 280 7 615 7 l608 0 0 -591z m1490 243 l0 -349 -86 -219 c-47 -120
-100 -256 -117 -302 -24 -63 -35 -81 -47 -76 -39 16 -122 26 -485 54 -214 17
-414 33 -442 36 l-53 6 0 599 0 599 615 0 615 0 0 -348z m270 341 c0 -5 -5
-15 -10 -23 -8 -12 -10 -11 -10 8 0 12 5 22 10 22 6 0 10 -3 10 -7z m-6115
-4679 c109 -34 205 -120 258 -232 30 -63 32 -74 32 -182 0 -111 -1 -118 -34
-182 -40 -81 -128 -169 -203 -203 -163 -75 -366 -39 -491 87 -131 131 -160
318 -78 494 87 186 310 280 516 218z m6960 -1 c152 -46 272 -187 294 -345 48
-345 -297 -596 -616 -448 -163 75 -264 270 -235 448 44 263 302 423 557 345z"></path>
      <path d="M1455 936 c-60 -28 -87 -56 -114 -116 -61 -135 19 -289 168 -321 157
-33 305 115 272 272 -33 151 -189 230 -326 165z"></path>
      <path d="M8412 935 c-201 -102 -163 -388 57 -436 127 -27 256 66 277 199 9 58
-18 141 -61 185 -49 51 -89 69 -160 74 -51 4 -68 0 -113 -22z"></path>
    </g>
  </symbol>
  <symbol xmlns="http://www.w3.org/2000/svg" viewBox="25.142 146.287 900.6 731.4" id="twitter">
    <path d="M925.714 233.143c-25.143 36.571-56.571 69.143-92.571 95.429 0.571 8 0.571 16 0.571 24 0 244-185.714 525.143-525.143 525.143-104.571 0-201.714-30.286-283.429-82.857 14.857 1.714 29.143 2.286 44.571 2.286 86.286 0 165.714-29.143 229.143-78.857-81.143-1.714-149.143-54.857-172.571-128 11.429 1.714 22.857 2.857 34.857 2.857 16.571 0 33.143-2.286 48.571-6.286-84.571-17.143-148-91.429-148-181.143v-2.286c24.571 13.714 53.143 22.286 83.429 23.429-49.714-33.143-82.286-89.714-82.286-153.714 0-34.286 9.143-65.714 25.143-93.143 90.857 112 227.429 185.143 380.571 193.143-2.857-13.714-4.571-28-4.571-42.286 0-101.714 82.286-184.571 184.571-184.571 53.143 0 101.143 22.286 134.857 58.286 41.714-8 81.714-23.429 117.143-44.571-13.714 42.857-42.857 78.857-81.143 101.714 37.143-4 73.143-14.286 106.286-28.571z"></path>
  </symbol>
  <symbol xmlns="http://www.w3.org/2000/svg" viewBox="85.3341 42.7756 853.3 942" id="cube-icon">
    <path d="M809.003 291.328l-297.003 171.819-297.003-171.819 275.456-157.397c4.779-2.731 9.899-4.48 15.147-5.333 9.301-1.451 18.987 0.128 27.904 5.291zM491.776 979.669c6.016 3.243 12.928 5.077 20.224 5.077 7.381 0 14.336-1.877 20.395-5.163 15.189-2.475 29.909-7.68 43.392-15.36l298.709-170.709c26.368-15.232 45.269-38.315 55.424-64.597 5.675-14.592 8.619-30.165 8.747-46.251v-341.333c0-20.395-4.821-39.723-13.397-56.917-0.939-3.029-2.219-5.973-3.883-8.832-1.963-3.371-4.267-6.357-6.912-8.96-1.323-1.835-2.731-3.669-4.139-5.419-9.813-12.203-21.845-22.528-35.456-30.507l-299.051-170.88c-26.027-15.019-55.467-19.84-83.328-15.531-15.531 2.432-30.507 7.637-44.288 15.488l-298.709 170.709c-16.341 9.429-29.824 21.888-40.149 36.267-2.56 2.56-4.864 5.547-6.784 8.832-1.664 2.901-2.987 5.888-3.925 8.96-1.707 3.456-3.243 6.955-4.608 10.496-5.632 14.635-8.576 30.208-8.704 45.995v341.632c0.043 30.293 10.581 58.197 28.331 80.128 9.813 12.203 21.845 22.528 35.456 30.507l299.051 170.88c13.824 7.979 28.587 13.099 43.605 15.445zM469.333 537.045v340.949l-277.12-158.336c-4.736-2.773-8.832-6.315-12.16-10.411-5.931-7.381-9.387-16.512-9.387-26.581v-318.379zM554.667 877.995v-340.949l298.667-172.757v318.379c-0.043 5.163-1.067 10.496-2.987 15.445-3.413 8.789-9.6 16.384-18.176 21.333z"></path>
  </symbol>
</svg>